<?xml version="1.0" standalone="no"?>
<!DOCTYPE svg PUBLIC "-//W3C//DTD SVG 20010904//EN"
 "http://www.w3.org/TR/2001/REC-SVG-20010904/DTD/svg10.dtd">
<svg version="1.0" xmlns="http://www.w3.org/2000/svg"
 width="416.000000pt" height="314.000000pt" viewBox="0 0 416.000000 314.000000"
 preserveAspectRatio="xMidYMid meet">

<g transform="translate(0.000000,314.000000) scale(0.100000,-0.100000)"
fill="#000000" stroke="none">
<path d="M2234 1882 c-39 -66 -149 -186 -225 -244 -98 -75 -189 -123 -307
-163 -115 -40 -87 -46 50 -11 100 25 207 74 298 136 59 40 164 142 189 184 9
15 18 26 22 26 3 0 19 -19 34 -42 119 -180 311 -290 578 -331 44 -7 24 3 -70
35 -153 51 -297 140 -388 239 -50 55 -121 150 -137 184 -6 14 -14 25 -17 25
-3 0 -16 -17 -27 -38z"/>
<path d="M1890 1395 c0 -17 -4 -113 -9 -215 -6 -102 -13 -247 -16 -322 l-6
-138 35 0 36 0 0 71 c0 104 21 363 30 372 4 5 29 -32 56 -83 45 -85 50 -91 74
-85 14 4 27 8 29 10 4 5 -205 395 -220 410 -5 5 -9 -2 -9 -20z"/>
<path d="M2596 1370 c-16 -30 -75 -132 -132 -227 -57 -94 -104 -178 -104 -186
0 -19 42 -35 48 -19 7 23 136 232 142 232 4 0 10 -26 14 -57 6 -51 25 -328 26
-375 0 -13 8 -18 32 -18 l31 0 -7 248 c-5 136 -11 294 -15 352 l-6 105 -29
-55z"/>
<path d="M2227 1253 c-10 -82 -25 -183 -33 -226 -17 -85 -13 -117 10 -97 16
12 19 0 31 -142 7 -68 7 -68 37 -68 l31 0 -7 92 c-3 50 -6 203 -6 340 l0 248
-23 0 c-22 0 -23 -6 -40 -147z"/>
<path d="M1520 900 c0 -20 58 -126 102 -186 124 -167 296 -302 524 -411 l114
-54 107 51 c260 122 474 310 588 515 50 89 42 120 -10 40 -154 -240 -312 -385
-546 -501 -121 -60 -138 -62 -229 -24 -227 94 -434 268 -570 478 -61 95 -80
116 -80 92z"/>
</g>
</svg>
